<mxfile host="app.diagrams.net" agent="Mozilla/5.0 (Windows NT 10.0; Win64; x64) AppleWebKit/537.36 (KHTML, like Gecko) Chrome/135.0.0.0 Safari/537.36" version="26.2.14">
  <diagram id="6a731a19-8d31-9384-78a2-239565b7b9f0" name="Page-1">
    <mxGraphModel dx="925" dy="540" grid="0" gridSize="10" guides="1" tooltips="1" connect="1" arrows="1" fold="1" page="1" pageScale="1" pageWidth="1169" pageHeight="827" background="none" math="0" shadow="0">
      <root>
        <mxCell id="0" />
        <mxCell id="1" parent="0" />
        <mxCell id="-6Nkia1O1ybfWVJIbkWZ-69" value="" style="ellipse;whiteSpace=wrap;html=1;aspect=fixed;" vertex="1" parent="1">
          <mxGeometry x="298" y="730" width="45" height="45" as="geometry" />
        </mxCell>
        <mxCell id="-6Nkia1O1ybfWVJIbkWZ-62" style="edgeStyle=orthogonalEdgeStyle;rounded=0;orthogonalLoop=1;jettySize=auto;html=1;exitX=1;exitY=0.5;exitDx=0;exitDy=0;exitPerimeter=0;entryX=0.5;entryY=1;entryDx=0;entryDy=0;" edge="1" parent="1" source="6" target="-6Nkia1O1ybfWVJIbkWZ-61">
          <mxGeometry relative="1" as="geometry">
            <mxPoint x="553" y="387" as="targetPoint" />
          </mxGeometry>
        </mxCell>
        <mxCell id="6" value="Any absences?" style="shape=mxgraph.flowchart.decision;strokeWidth=2;gradientColor=none;gradientDirection=north;fontStyle=0;html=1;" parent="1" vertex="1">
          <mxGeometry x="271" y="390" width="98" height="57" as="geometry" />
        </mxCell>
        <mxCell id="7" style="fontStyle=1;strokeColor=#003366;strokeWidth=1;html=1;" parent="1" edge="1">
          <mxGeometry relative="1" as="geometry">
            <mxPoint x="320" y="90" as="sourcePoint" />
            <mxPoint x="320" y="138" as="targetPoint" />
          </mxGeometry>
        </mxCell>
        <mxCell id="9" style="entryX=0.5;entryY=0;entryPerimeter=0;fontStyle=1;strokeColor=#003366;strokeWidth=1;html=1;" parent="1" target="6" edge="1">
          <mxGeometry relative="1" as="geometry">
            <mxPoint x="320" y="330" as="sourcePoint" />
          </mxGeometry>
        </mxCell>
        <mxCell id="11" value="yes" style="text;fontStyle=0;html=1;strokeColor=none;gradientColor=none;fillColor=none;strokeWidth=2;" parent="1" vertex="1">
          <mxGeometry x="370" y="390" width="40" height="26" as="geometry" />
        </mxCell>
        <mxCell id="12" value="" style="edgeStyle=elbowEdgeStyle;elbow=horizontal;fontColor=#001933;fontStyle=1;strokeColor=#003366;strokeWidth=1;html=1;" parent="1" source="6" edge="1">
          <mxGeometry width="100" height="100" as="geometry">
            <mxPoint y="100" as="sourcePoint" />
            <mxPoint x="319.7058823529412" y="510" as="targetPoint" />
          </mxGeometry>
        </mxCell>
        <mxCell id="14" value="no" style="text;fontStyle=0;html=1;strokeColor=none;gradientColor=none;fillColor=none;strokeWidth=2;align=center;" parent="1" vertex="1">
          <mxGeometry x="320" y="447" width="40" height="26" as="geometry" />
        </mxCell>
        <mxCell id="-6Nkia1O1ybfWVJIbkWZ-64" style="edgeStyle=orthogonalEdgeStyle;rounded=0;orthogonalLoop=1;jettySize=auto;html=1;exitX=0.5;exitY=1;exitDx=0;exitDy=0;entryX=0.5;entryY=0;entryDx=0;entryDy=0;" edge="1" parent="1" source="-6Nkia1O1ybfWVJIbkWZ-55" target="-6Nkia1O1ybfWVJIbkWZ-60">
          <mxGeometry relative="1" as="geometry" />
        </mxCell>
        <mxCell id="-6Nkia1O1ybfWVJIbkWZ-55" value="&lt;span style=&quot;text-wrap-mode: nowrap;&quot;&gt;Teacher logs in&lt;/span&gt;" style="rounded=1;whiteSpace=wrap;html=1;strokeWidth=2;" vertex="1" parent="1">
          <mxGeometry x="260" y="131" width="126.5" height="70" as="geometry" />
        </mxCell>
        <mxCell id="-6Nkia1O1ybfWVJIbkWZ-58" value="" style="ellipse;shape=doubleEllipse;whiteSpace=wrap;html=1;fillColor=#000000;" vertex="1" parent="1">
          <mxGeometry x="301.5" y="57" width="39" height="36" as="geometry" />
        </mxCell>
        <mxCell id="-6Nkia1O1ybfWVJIbkWZ-60" value="&lt;span style=&quot;text-wrap-mode: nowrap;&quot;&gt;Mark attendance&lt;/span&gt;" style="rounded=1;whiteSpace=wrap;html=1;strokeWidth=2;" vertex="1" parent="1">
          <mxGeometry x="260" y="260" width="126.5" height="70" as="geometry" />
        </mxCell>
        <mxCell id="-6Nkia1O1ybfWVJIbkWZ-61" value="&lt;span style=&quot;text-wrap-mode: nowrap;&quot;&gt;Notify parents&lt;/span&gt;" style="rounded=1;whiteSpace=wrap;html=1;strokeWidth=2;" vertex="1" parent="1">
          <mxGeometry x="418" y="327" width="126.5" height="70" as="geometry" />
        </mxCell>
        <mxCell id="-6Nkia1O1ybfWVJIbkWZ-67" style="edgeStyle=orthogonalEdgeStyle;rounded=0;orthogonalLoop=1;jettySize=auto;html=1;exitX=0.5;exitY=1;exitDx=0;exitDy=0;exitPerimeter=0;entryX=0.5;entryY=0;entryDx=0;entryDy=0;" edge="1" parent="1" source="-6Nkia1O1ybfWVJIbkWZ-65" target="-6Nkia1O1ybfWVJIbkWZ-66">
          <mxGeometry relative="1" as="geometry" />
        </mxCell>
        <mxCell id="-6Nkia1O1ybfWVJIbkWZ-65" value="Merge" style="shape=mxgraph.flowchart.decision;strokeWidth=2;gradientColor=none;gradientDirection=north;fontStyle=0;html=1;" vertex="1" parent="1">
          <mxGeometry x="271" y="512" width="98" height="57" as="geometry" />
        </mxCell>
        <mxCell id="-6Nkia1O1ybfWVJIbkWZ-70" style="edgeStyle=orthogonalEdgeStyle;rounded=0;orthogonalLoop=1;jettySize=auto;html=1;exitX=0.5;exitY=1;exitDx=0;exitDy=0;entryX=0.5;entryY=0;entryDx=0;entryDy=0;" edge="1" parent="1" source="-6Nkia1O1ybfWVJIbkWZ-66" target="-6Nkia1O1ybfWVJIbkWZ-69">
          <mxGeometry relative="1" as="geometry" />
        </mxCell>
        <mxCell id="-6Nkia1O1ybfWVJIbkWZ-66" value="&lt;span style=&quot;text-wrap-mode: nowrap;&quot;&gt;Update attendance&lt;/span&gt;&lt;div&gt;&lt;span style=&quot;text-wrap-mode: nowrap;&quot;&gt;&amp;nbsp;records&lt;/span&gt;&lt;/div&gt;" style="rounded=1;whiteSpace=wrap;html=1;strokeWidth=2;" vertex="1" parent="1">
          <mxGeometry x="256.75" y="620" width="126.5" height="70" as="geometry" />
        </mxCell>
        <mxCell id="-6Nkia1O1ybfWVJIbkWZ-68" value="" style="ellipse;shape=doubleEllipse;whiteSpace=wrap;html=1;fillColor=#000000;" vertex="1" parent="1">
          <mxGeometry x="304.25" y="737" width="33.5" height="32" as="geometry" />
        </mxCell>
        <mxCell id="-6Nkia1O1ybfWVJIbkWZ-71" style="edgeStyle=orthogonalEdgeStyle;rounded=0;orthogonalLoop=1;jettySize=auto;html=1;exitX=0.75;exitY=1;exitDx=0;exitDy=0;entryX=1;entryY=0.5;entryDx=0;entryDy=0;entryPerimeter=0;" edge="1" parent="1" source="-6Nkia1O1ybfWVJIbkWZ-61" target="-6Nkia1O1ybfWVJIbkWZ-65">
          <mxGeometry relative="1" as="geometry" />
        </mxCell>
      </root>
    </mxGraphModel>
  </diagram>
</mxfile>
